<?xml version="1.0" encoding="UTF-8" standalone="no"?>
<!DOCTYPE svg PUBLIC "-//W3C//DTD SVG 20010904//EN"
              "http://www.w3.org/TR/2001/REC-SVG-20010904/DTD/svg10.dtd">

<svg xmlns="http://www.w3.org/2000/svg"
     width="11.7067in" height="5.71333in"
     viewBox="0 0 3512 1714">
  <path id="Zaznaczenie"
        fill="none" stroke="black" stroke-width="1"
        d="M 723.00,0.21
           C 723.00,0.21 782.00,0.21 782.00,0.21
             782.00,0.21 799.00,1.00 799.00,1.00
             799.00,1.00 809.00,1.91 809.00,1.91
             809.00,1.91 859.00,7.92 859.00,7.92
             942.94,21.82 1022.62,53.00 1092.00,102.58
             1117.11,120.53 1144.94,143.89 1165.28,167.00
             1169.91,172.26 1180.68,183.54 1183.97,189.00
             1187.63,195.08 1181.95,200.06 1178.42,205.00
             1178.42,205.00 1152.71,241.00 1152.71,241.00
             1152.71,241.00 1105.42,307.00 1105.42,307.00
             1091.45,326.54 1075.18,351.47 1052.00,360.54
             1043.02,364.05 1032.57,365.11 1023.00,365.00
             1000.69,364.74 984.04,352.10 967.00,339.37
             967.00,339.37 948.00,325.71 948.00,325.71
             909.40,298.21 878.64,279.26 834.00,262.42
             810.35,253.50 785.14,248.75 760.00,246.91
             760.00,246.91 748.00,246.00 748.00,246.00
             748.00,246.00 707.00,246.00 707.00,246.00
             707.00,246.00 671.00,249.92 671.00,249.92
             605.50,260.69 544.98,292.82 507.51,349.00
             488.28,377.85 476.65,410.80 471.58,445.00
             470.41,452.92 469.01,463.09 469.00,471.00
             469.00,471.00 469.00,480.00 469.00,480.00
             469.00,480.00 469.00,499.00 469.00,499.00
             469.08,505.32 471.20,517.66 472.65,524.00
             483.40,570.89 519.75,606.03 559.00,631.31
             559.00,631.31 595.00,652.00 595.00,652.00
             595.00,652.00 614.00,661.31 614.00,661.31
             648.69,677.24 684.35,689.86 720.00,703.42
             771.53,723.03 822.65,743.08 872.00,767.75
             894.61,779.06 917.02,790.55 938.00,804.74
             964.80,822.87 986.60,841.62 1008.96,865.00
             1050.04,907.95 1081.04,971.57 1091.58,1030.00
             1091.58,1030.00 1097.09,1078.00 1097.09,1078.00
             1097.09,1078.00 1098.00,1090.00 1098.00,1090.00
             1098.00,1090.00 1098.00,1141.00 1098.00,1141.00
             1098.00,1141.00 1097.04,1152.00 1097.04,1152.00
             1095.72,1182.24 1091.74,1212.28 1085.80,1242.00
             1058.22,1379.93 984.40,1505.40 872.00,1591.12
             796.11,1648.99 706.67,1686.53 613.00,1703.42
             588.75,1707.80 564.53,1710.41 540.00,1712.09
             540.00,1712.09 528.00,1713.00 528.00,1713.00
             528.00,1713.00 508.00,1714.00 508.00,1714.00
             508.00,1714.00 468.00,1714.00 468.00,1714.00
             468.00,1714.00 447.00,1713.00 447.00,1713.00
             447.00,1713.00 437.00,1712.09 437.00,1712.09
             407.69,1710.07 378.79,1705.96 350.00,1700.00
             255.71,1680.49 165.12,1640.73 89.00,1581.42
             66.77,1564.10 46.10,1545.61 26.91,1525.00
             22.03,1519.76 4.73,1501.24 1.94,1496.00
             -0.95,1490.58 6.03,1484.13 9.13,1480.00
             9.13,1480.00 38.12,1441.00 38.12,1441.00
             38.12,1441.00 84.12,1379.00 84.12,1379.00
             84.12,1379.00 114.04,1340.04 114.04,1340.04
             128.64,1325.44 153.98,1312.10 175.00,1312.00
             175.00,1312.00 183.00,1312.00 183.00,1312.00
             201.03,1312.21 215.70,1322.61 230.00,1332.34
             230.00,1332.34 313.00,1397.11 313.00,1397.11
             365.92,1436.80 434.91,1462.16 501.00,1465.04
             501.00,1465.04 512.00,1466.00 512.00,1466.00
             564.62,1466.61 614.61,1460.91 663.00,1438.69
             723.46,1410.93 766.56,1360.38 788.31,1298.00
             796.49,1274.53 800.70,1249.64 803.17,1225.00
             803.17,1225.00 805.00,1202.00 805.00,1202.00
             805.30,1175.73 804.60,1152.23 795.92,1127.00
             787.91,1103.71 775.30,1086.30 758.00,1069.00
             725.25,1036.24 690.03,1018.51 648.00,1000.58
             617.06,987.38 584.67,977.58 553.00,966.31
             553.00,966.31 464.00,933.40 464.00,933.40
             464.00,933.40 409.00,909.31 409.00,909.31
             365.70,889.43 327.16,867.67 292.00,834.91
             233.09,780.02 198.20,711.38 186.43,632.00
             186.43,632.00 182.00,588.00 182.00,588.00
             182.00,588.00 181.00,569.00 181.00,569.00
             181.00,569.00 181.00,535.00 181.00,535.00
             181.00,535.00 182.00,516.00 182.00,516.00
             182.00,516.00 182.91,506.00 182.91,506.00
             185.02,475.29 190.16,444.88 197.63,415.00
             225.67,302.85 287.39,202.87 377.00,129.42
             449.28,70.18 536.51,29.75 628.00,11.45
             650.06,7.04 672.63,4.30 695.00,2.17
             695.00,2.17 723.00,0.21 723.00,0.21 Z
           M 1265.00,17.00
           C 1265.00,17.00 1725.00,17.00 1725.00,17.00
             1725.00,17.00 1826.00,17.00 1826.00,17.00
             1826.00,17.00 1841.00,18.00 1841.00,18.00
             1841.00,18.00 1858.00,18.00 1858.00,18.00
             1858.00,18.00 1875.00,19.00 1875.00,19.00
             1875.00,19.00 1886.00,19.91 1886.00,19.91
             1886.00,19.91 1932.00,23.84 1932.00,23.84
             2004.51,31.59 2077.54,49.24 2143.00,81.97
             2194.79,107.86 2241.82,146.32 2273.66,195.00
             2316.53,260.54 2329.90,336.97 2329.00,414.00
             2329.00,414.00 2328.00,427.00 2328.00,427.00
             2327.78,445.99 2325.18,465.26 2322.08,484.00
             2310.75,552.42 2287.33,610.35 2245.53,666.00
             2199.82,726.85 2137.92,770.87 2070.00,803.74
             2070.00,803.74 2028.00,821.58 2028.00,821.58
             2028.00,821.58 2000.00,832.00 2000.00,832.00
             2000.00,832.00 2052.00,847.69 2052.00,847.69
             2111.12,868.73 2169.60,900.44 2210.56,949.00
             2251.99,998.11 2270.85,1051.83 2277.17,1115.00
             2277.17,1115.00 2279.00,1141.00 2279.00,1141.00
             2279.00,1141.00 2279.00,1169.00 2279.00,1169.00
             2279.00,1169.00 2278.00,1190.00 2278.00,1190.00
             2278.00,1190.00 2277.09,1200.00 2277.09,1200.00
             2275.23,1226.62 2271.18,1252.92 2265.42,1279.00
             2237.56,1405.16 2163.02,1512.20 2056.00,1584.33
             1972.58,1640.55 1868.71,1676.23 1769.00,1688.15
             1769.00,1688.15 1717.00,1693.09 1717.00,1693.09
             1717.00,1693.09 1707.00,1694.00 1707.00,1694.00
             1707.00,1694.00 1686.00,1695.00 1686.00,1695.00
             1686.00,1695.00 1525.00,1695.00 1525.00,1695.00
             1525.00,1695.00 1059.00,1695.00 1059.00,1695.00
             1059.00,1695.00 1064.72,1647.00 1064.72,1647.00
             1064.72,1647.00 1076.85,1548.00 1076.85,1548.00
             1076.85,1548.00 1112.85,1256.00 1112.85,1256.00
             1112.85,1256.00 1220.15,383.00 1220.15,383.00
             1220.15,383.00 1251.28,130.00 1251.28,130.00
             1251.28,130.00 1260.15,58.00 1260.15,58.00
             1260.15,58.00 1265.00,17.00 1265.00,17.00 Z
           M 2457.00,17.00
           C 2457.00,17.00 2889.00,17.00 2889.00,17.00
             2889.00,17.00 2989.00,17.00 2989.00,17.00
             2989.00,17.00 2999.00,17.96 2999.00,17.96
             2999.00,17.96 3015.00,17.96 3015.00,17.96
             3015.00,17.96 3034.00,19.00 3034.00,19.00
             3034.00,19.00 3044.00,19.91 3044.00,19.91
             3044.00,19.91 3101.00,25.73 3101.00,25.73
             3196.04,39.43 3289.56,70.16 3365.00,131.46
             3448.48,199.29 3494.57,296.53 3507.72,402.00
             3507.72,402.00 3511.09,441.00 3511.09,441.00
             3511.09,441.00 3512.00,453.00 3512.00,453.00
             3512.00,453.00 3512.00,509.00 3512.00,509.00
             3512.00,509.00 3511.00,528.00 3511.00,528.00
             3511.00,528.00 3510.09,538.00 3510.09,538.00
             3507.71,572.67 3502.93,607.03 3495.42,641.00
             3485.43,686.27 3471.04,731.04 3451.22,773.00
             3410.01,860.22 3344.78,935.81 3264.00,988.66
             3179.59,1043.87 3083.51,1076.93 2984.00,1091.27
             2958.79,1094.90 2933.43,1097.93 2908.00,1099.04
             2908.00,1099.04 2896.00,1100.00 2896.00,1100.00
             2896.00,1100.00 2877.00,1101.00 2877.00,1101.00
             2877.00,1101.00 2852.00,1101.00 2852.00,1101.00
             2852.00,1101.00 2835.00,1102.00 2835.00,1102.00
             2835.00,1102.00 2626.00,1102.00 2626.00,1102.00
             2626.00,1102.00 2622.15,1134.00 2622.15,1134.00
             2622.15,1134.00 2614.15,1199.00 2614.15,1199.00
             2614.15,1199.00 2592.15,1378.00 2592.15,1378.00
             2592.15,1378.00 2566.15,1589.00 2566.15,1589.00
             2566.15,1589.00 2557.28,1661.00 2557.28,1661.00
             2557.28,1661.00 2553.00,1695.00 2553.00,1695.00
             2553.00,1695.00 2253.00,1695.00 2253.00,1695.00
             2253.00,1695.00 2260.84,1629.00 2260.84,1629.00
             2260.84,1629.00 2278.85,1481.00 2278.85,1481.00
             2278.85,1481.00 2325.72,1096.00 2325.72,1096.00
             2325.72,1096.00 2418.72,332.00 2418.72,332.00
             2418.72,332.00 2446.72,102.00 2446.72,102.00
             2446.72,102.00 2457.00,17.00 2457.00,17.00 Z
           M 1476.00,748.00
           C 1476.00,748.00 1658.00,748.00 1658.00,748.00
             1658.00,748.00 1714.00,748.00 1714.00,748.00
             1714.00,748.00 1734.00,747.00 1734.00,747.00
             1734.00,747.00 1744.00,746.09 1744.00,746.09
             1744.00,746.09 1772.00,743.28 1772.00,743.28
             1813.38,737.88 1855.15,726.62 1892.00,706.69
             1911.73,696.02 1931.88,681.56 1948.00,665.96
             1999.19,616.42 2020.19,538.41 2021.00,469.00
             2021.00,469.00 2022.00,450.00 2022.00,450.00
             2022.00,450.00 2021.00,435.00 2021.00,435.00
             2021.00,435.00 2021.00,430.00 2021.00,430.00
             2020.90,421.87 2018.80,408.26 2017.41,400.00
             2009.33,351.81 1986.91,311.03 1944.00,285.45
             1907.06,263.43 1862.41,254.83 1820.00,251.91
             1820.00,251.91 1810.00,251.00 1810.00,251.00
             1810.00,251.00 1790.00,250.00 1790.00,250.00
             1790.00,250.00 1546.00,250.00 1546.00,250.00
             1544.06,250.00 1540.28,249.75 1538.74,250.99
             1536.97,252.42 1537.00,255.89 1536.72,258.00
             1536.72,258.00 1534.28,277.00 1534.28,277.00
             1534.28,277.00 1523.28,366.00 1523.28,366.00
             1523.28,366.00 1491.15,627.00 1491.15,627.00
             1491.15,627.00 1481.15,708.00 1481.15,708.00
             1481.15,708.00 1476.00,748.00 1476.00,748.00 Z
           M 2655.00,866.00
           C 2655.00,866.00 2816.00,866.00 2816.00,866.00
             2816.00,866.00 2886.00,866.00 2886.00,866.00
             2886.00,866.00 2898.00,865.09 2898.00,865.09
             2898.00,865.09 2922.00,863.16 2922.00,863.16
             2979.91,856.97 3030.81,840.24 3079.00,806.98
             3094.06,796.58 3111.31,781.76 3123.28,768.00
             3141.13,747.48 3154.24,729.23 3166.74,705.00
             3184.98,669.65 3196.34,628.20 3202.42,589.00
             3202.42,589.00 3207.09,546.00 3207.09,546.00
             3207.09,546.00 3208.04,536.00 3208.04,536.00
             3208.04,536.00 3208.04,522.00 3208.04,522.00
             3208.04,522.00 3209.00,510.00 3209.00,510.00
             3209.00,510.00 3209.00,502.00 3209.00,502.00
             3209.00,502.00 3208.04,492.00 3208.04,492.00
             3208.04,492.00 3208.04,482.00 3208.04,482.00
             3207.84,468.31 3204.00,444.57 3200.88,431.00
             3187.00,370.70 3161.02,326.83 3108.00,292.69
             3067.70,266.74 3011.84,251.56 2964.00,251.00
             2964.00,251.00 2949.00,250.00 2949.00,250.00
             2949.00,250.00 2898.00,250.00 2898.00,250.00
             2898.00,250.00 2739.00,250.00 2739.00,250.00
             2737.01,250.00 2733.19,249.77 2731.60,251.02
             2729.85,252.40 2729.57,257.76 2729.28,260.00
             2729.28,260.00 2726.42,283.00 2726.42,283.00
             2726.42,283.00 2719.72,339.00 2719.72,339.00
             2719.72,339.00 2712.95,394.00 2712.95,394.00
             2712.95,394.00 2698.28,513.00 2698.28,513.00
             2698.28,513.00 2677.28,685.00 2677.28,685.00
             2677.28,685.00 2662.15,809.00 2662.15,809.00
             2662.15,809.00 2655.00,866.00 2655.00,866.00 Z
           M 1389.00,1460.00
           C 1389.00,1460.00 1620.00,1460.00 1620.00,1460.00
             1620.00,1460.00 1693.00,1460.00 1693.00,1460.00
             1693.00,1460.00 1719.00,1458.17 1719.00,1458.17
             1767.63,1453.46 1807.59,1444.22 1851.00,1420.69
             1864.35,1413.45 1879.61,1402.86 1891.00,1392.85
             1962.02,1330.42 1982.06,1237.70 1981.00,1147.00
             1981.00,1147.00 1980.09,1137.00 1980.09,1137.00
             1975.84,1076.21 1948.31,1020.52 1894.00,989.43
             1865.93,973.36 1831.88,964.88 1800.00,960.72
             1800.00,960.72 1770.00,957.91 1770.00,957.91
             1770.00,957.91 1758.00,957.00 1758.00,957.00
             1758.00,957.00 1703.00,957.00 1703.00,957.00
             1703.00,957.00 1459.00,957.00 1459.00,957.00
             1457.01,957.00 1453.19,956.77 1451.60,958.02
             1449.90,959.37 1449.86,962.95 1449.58,965.00
             1449.58,965.00 1447.15,985.00 1447.15,985.00
             1447.15,985.00 1436.15,1075.00 1436.15,1075.00
             1436.15,1075.00 1415.72,1244.00 1415.72,1244.00
             1415.72,1244.00 1406.16,1321.00 1406.16,1321.00
             1406.16,1321.00 1395.15,1412.00 1395.15,1412.00
             1395.15,1412.00 1389.00,1460.00 1389.00,1460.00 Z" />
</svg>
